<svg xmlns="http://www.w3.org/2000/svg" width="20" height="20" viewBox="0 0 20 20">
    <g fill="none" fill-rule="evenodd">
        <path d="M-1-1h22v22H-1z"/>
        <path fill="#8A8B9F" d="M9.99.833C4.93.833.834 4.94.834 10s4.098 9.167 9.158 9.167c5.069 0 9.176-4.107 9.176-9.167S15.06.833 9.99.833zm6.353 5.5H13.64a14.345 14.345 0 0 0-1.265-3.263 7.36 7.36 0 0 1 3.97 3.263zM10 2.703c.76 1.1 1.357 2.32 1.75 3.63h-3.5c.393-1.31.99-2.53 1.75-3.63zm-7.095 9.13A7.555 7.555 0 0 1 2.667 10c0-.633.091-1.247.238-1.833h3.098c-.073.605-.128 1.21-.128 1.833s.055 1.228.128 1.833H2.905zm.752 1.834H6.36a14.345 14.345 0 0 0 1.265 3.263 7.321 7.321 0 0 1-3.97-3.263zM6.36 6.333H3.657A7.321 7.321 0 0 1 7.626 3.07 14.345 14.345 0 0 0 6.36 6.333zM10 17.297c-.76-1.1-1.357-2.32-1.75-3.63h3.5c-.393 1.31-.99 2.53-1.75 3.63zm2.145-5.464h-4.29A13.487 13.487 0 0 1 7.708 10c0-.623.065-1.238.147-1.833h4.29c.082.595.147 1.21.147 1.833s-.065 1.228-.147 1.833zm.23 5.097c.55-1.017.97-2.117 1.264-3.263h2.704a7.36 7.36 0 0 1-3.969 3.263zm1.622-5.097c.073-.605.128-1.21.128-1.833s-.055-1.228-.128-1.833h3.098c.147.586.238 1.2.238 1.833s-.091 1.247-.238 1.833h-3.098z"/>
    </g>
</svg>
