<svg xmlns="http://www.w3.org/2000/svg" width="18" height="18" viewBox="0 0 18 18">
    <g fill="none" fill-rule="evenodd">
        <path d="M-2-2h22v22H-2z"/>
        <path fill="#8A8B9F" d="M4.068 7.89a13.886 13.886 0 0 0 6.041 6.042l2.017-2.017a.911.911 0 0 1 .935-.22c1.026.34 2.136.522 3.272.522a.92.92 0 0 1 .917.917v3.2a.92.92 0 0 1-.917.916C7.726 17.25.75 10.274.75 1.667A.92.92 0 0 1 1.667.75h3.208a.92.92 0 0 1 .917.917c0 1.145.183 2.245.522 3.272a.92.92 0 0 1-.229.935L4.068 7.891z"/>
    </g>
</svg>
