<svg xmlns="http://www.w3.org/2000/svg" width="20" height="20" viewBox="0 0 20 20">
    <g fill="none" fill-rule="evenodd">
        <path fill="#8A8B9F" d="M3.082 0h13.836A3.082 3.082 0 0 1 20 3.082v13.836A3.082 3.082 0 0 1 16.918 20H3.082A3.082 3.082 0 0 1 0 16.918V3.082A3.082 3.082 0 0 1 3.082 0"/>
        <path fill="#FFF" d="M9.832 14h.818s.247-.027.374-.163c.116-.124.112-.359.112-.359s-.016-1.098.494-1.26c.502-.159 1.147 1.062 1.83 1.53.517.356.91.278.91.278l1.828-.025s.956-.06.503-.811c-.037-.062-.264-.556-1.36-1.573-1.146-1.063-.992-.891.389-2.732.84-1.12 1.177-1.804 1.072-2.097-.1-.28-.719-.206-.719-.206l-2.058.013s-.153-.02-.266.047a.574.574 0 0 0-.181.22s-.326.868-.76 1.605c-.917 1.557-1.283 1.639-1.433 1.542-.349-.225-.262-.904-.262-1.387 0-1.508.229-2.137-.445-2.3-.224-.054-.389-.09-.96-.095-.735-.008-1.357.002-1.709.174-.234.115-.414.37-.304.385.136.018.444.083.607.305.211.287.204.932.204.932s.12 1.775-.283 1.995c-.278.152-.658-.157-1.475-1.569a13.133 13.133 0 0 1-.735-1.523s-.06-.149-.17-.229c-.131-.097-.316-.127-.316-.127l-1.955.012s-.294.009-.402.136c-.096.114-.008.349-.008.349s1.531 3.582 3.265 5.387c1.59 1.655 3.395 1.547 3.395 1.547"/>
    </g>
</svg>
